# xmcd
#
# Track frame offsets:
#	150
#	14872
#	33990
#	52117
#	66432
#	81792
#	98670
#	113220
#	130842
#	147765
#
# Disc length: 2183 seconds
#
# Revision: 9
# Processed by: cddbd v1.5.2PL0 Copyright (c) Steve Scherf et al.
# Submitted via: EasyCDDAExtractor 15.3.0.1
#
DISCID=8c08850a
DTITLE=Selena - Siempre Selena
DYEAR=1996
DGENRE=Latin
TTITLE0=Siempre Hace Frio
TTITLE1=Only Love
TTITLE2=Soy Amiga
TTITLE3=Como Quisiera
TTITLE4=A Million To One
TTITLE5=Costumbres
TTITLE6=Cien Años
TTITLE7=Tu Robaste Mi Corazon (Con Pete Astudillo)
TTITLE8=Ya No
TTITLE9=No Quiero Saber
EXTD=YEAR: 1996
EXTT0=
EXTT1=
EXTT2=
EXTT3=
EXTT4=
EXTT5=
EXTT6=
EXTT7=
EXTT8=
EXTT9=
PLAYORDER=
